<svg xmlns="http://www.w3.org/2000/svg" xmlns:xlink="http://www.w3.org/1999/xlink" viewBox="0 0 396 165" data-background-color="#ffffff" preserveAspectRatio="xMidYMid meet" height="625" width="1500"><g id="tight-bounds" transform="matrix(1,0,0,1,0.2400000000000091,0.1959449443032213)"><svg viewBox="0 0 395.52 164.60811011139356" height="164.60811011139356" width="395.52"><g><svg viewBox="0 0 569.5771021142331 237.04745737699264" height="164.60811011139356" width="395.52"><g><rect width="7.91817599557668" height="237.04745737699264" x="145.41071670615202" y="0" fill="#1d597d" opacity="1" stroke-width="0" stroke="transparent" fill-opacity="1" class="rect-yte-0" data-fill-palette-color="primary" rx="1%" id="yte-0" data-palette-color="#1d597d"/></g><g transform="matrix(1,0,0,1,174.0571021142331,0.5896702919825572)"><svg viewBox="0 0 395.52 235.86811679302753" height="235.86811679302753" width="395.52"><g id="textblocktransform"><svg viewBox="0 0 395.52 235.86811679302753" height="235.86811679302753" width="395.52" id="textblock"><g><svg viewBox="0 0 395.52 189.85887906158356" height="189.85887906158356" width="395.52"><g transform="matrix(1,0,0,1,0,0)"><svg width="395.52" viewBox="1.2699999999999974 -36.72 169.92 76.91999999999999" height="189.85887906158356" data-palette-color="#1d597d"><svg/><svg/><g class="wordmark-text-0" data-fill-palette-color="primary" id="text-0"><path d="M17.33-36.72h5.96v28.03c0 1.693-0.31 3.117-0.93 4.27-0.613 1.153-1.443 2.08-2.49 2.78-1.04 0.7-2.237 1.19-3.59 1.47-1.347 0.273-2.737 0.41-4.17 0.41v0c-0.713 0-1.553-0.073-2.52-0.22-0.96-0.147-1.95-0.373-2.97-0.68-1.027-0.307-2.013-0.657-2.96-1.05-0.94-0.387-1.737-0.827-2.39-1.32v0l2.49-3.95c0.327 0.227 0.79 0.463 1.39 0.71 0.6 0.24 1.26 0.467 1.98 0.68 0.713 0.213 1.463 0.4 2.25 0.56 0.78 0.16 1.51 0.24 2.19 0.24v0c1.727 0 3.103-0.333 4.13-1 1.027-0.667 1.57-1.797 1.63-3.39v0zM31.35-18.16v0c0-2.9 0.35-5.463 1.05-7.69 0.7-2.233 1.677-4.123 2.93-5.67 1.253-1.547 2.733-2.733 4.44-3.56 1.707-0.833 3.57-1.313 5.59-1.44v0 4.88c-1.107 0.127-2.147 0.467-3.12 1.02-0.98 0.553-1.827 1.37-2.54 2.45-0.72 1.073-1.29 2.44-1.71 4.1-0.427 1.66-0.657 3.63-0.69 5.91v0c0.033 2.307 0.263 4.283 0.69 5.93 0.42 1.64 0.997 3.013 1.73 4.12 0.733 1.107 1.59 1.947 2.57 2.52 0.973 0.567 1.997 0.9 3.07 1v0 4.83c-1.987-0.127-3.843-0.607-5.57-1.44-1.72-0.827-3.207-2.013-4.46-3.56-1.253-1.547-2.23-3.443-2.93-5.69-0.7-2.247-1.05-4.817-1.05-7.71zM47.31-31.69v-4.83c1.987 0.093 3.837 0.563 5.55 1.41 1.707 0.847 3.187 2.043 4.44 3.59 1.253 1.547 2.237 3.437 2.95 5.67 0.72 2.227 1.08 4.79 1.08 7.69v0c0 2.893-0.36 5.463-1.08 7.71-0.713 2.247-1.697 4.143-2.95 5.69-1.253 1.547-2.727 2.733-4.42 3.56-1.693 0.833-3.55 1.313-5.57 1.44v0-4.83c1.107-0.133 2.15-0.483 3.13-1.05 0.973-0.567 1.82-1.397 2.54-2.49 0.713-1.093 1.283-2.46 1.71-4.1 0.42-1.647 0.647-3.623 0.68-5.93v0c-0.033-2.313-0.26-4.293-0.68-5.94-0.427-1.64-1.007-3.007-1.74-4.1-0.727-1.087-1.58-1.917-2.56-2.49-0.973-0.567-2-0.9-3.08-1zM86.77-18.95v0c0.747 0.1 1.543 0.347 2.39 0.74 0.847 0.387 1.637 0.94 2.37 1.66 0.733 0.713 1.343 1.583 1.83 2.61 0.487 1.027 0.73 2.207 0.73 3.54v0c0 1.627-0.243 3.027-0.73 4.2-0.487 1.173-1.097 2.14-1.83 2.9-0.733 0.767-1.53 1.37-2.39 1.81-0.867 0.44-1.697 0.773-2.49 1-0.8 0.227-1.51 0.367-2.13 0.42-0.62 0.047-1.027 0.07-1.22 0.07v0h-5.66v-4.3h5.32c1.727 0 3.077-0.553 4.05-1.66 0.98-1.107 1.47-2.587 1.47-4.44v0c0-1.76-0.507-3.24-1.52-4.44-1.007-1.207-2.487-1.81-4.44-1.81v0h-4.88v-3.96h2.34c0.713 0 1.447-0.013 2.2-0.04 0.747-0.033 1.447-0.213 2.1-0.54 0.647-0.327 1.173-0.88 1.58-1.66 0.407-0.78 0.61-1.903 0.61-3.37v0c0-0.587-0.08-1.197-0.24-1.83-0.16-0.633-0.487-1.213-0.98-1.74-0.487-0.52-1.187-0.94-2.1-1.26-0.907-0.327-2.11-0.49-3.61-0.49v0h-1.9v-4.45h2.49c1.527 0 3.007 0.18 4.44 0.54 1.433 0.36 2.703 0.93 3.81 1.71 1.107 0.78 1.987 1.797 2.64 3.05 0.647 1.253 0.97 2.743 0.97 4.47v0c0 1.007-0.163 1.927-0.49 2.76-0.32 0.827-0.727 1.55-1.22 2.17-0.487 0.62-1.047 1.133-1.68 1.54-0.633 0.407-1.243 0.673-1.83 0.8zM69.78 0v-35.99h5.85v35.99z" fill="#1d597d" fill-rule="nonzero" stroke="none" stroke-width="1" stroke-linecap="butt" stroke-linejoin="miter" stroke-miterlimit="10" stroke-dasharray="" stroke-dashoffset="0" font-family="none" font-weight="none" font-size="none" text-anchor="none" style="mix-blend-mode: normal" data-fill-palette-color="primary" opacity="1"/><path transform="translate(0,39.96)" d="M4.69 0v-35.99h5.86v35.99zM12.55-35.99h2.98c3.027 0 5.687 0.48 7.98 1.44 2.293 0.96 4.197 2.24 5.71 3.84 1.513 1.593 2.647 3.407 3.4 5.44 0.747 2.033 1.12 4.127 1.12 6.28v0c0 2.96-0.317 5.49-0.95 7.59-0.633 2.1-1.44 3.857-2.42 5.27-0.973 1.42-2.07 2.537-3.29 3.35-1.227 0.813-2.407 1.423-3.54 1.83-1.14 0.407-2.183 0.667-3.13 0.78-0.947 0.113-1.647 0.17-2.1 0.17v0h-5.76v-4.3h3.81c3.967 0 6.83-1.27 8.59-3.81 1.76-2.533 2.64-6.21 2.64-11.03v0c0-1.5-0.18-2.98-0.54-4.44-0.36-1.467-1.05-2.793-2.07-3.98-1.027-1.193-2.42-2.153-4.18-2.88-1.76-0.733-4.04-1.1-6.84-1.1v0h-1.41zM42.24 0v-35.99h5.95v35.99zM63.23-20.21v4h-13.03v-4zM50.2 0v-4.44h14.55v4.44zM50.2-35.99h14.55v4.45h-14.55zM78.76 0h-5.96v-35.99h5.96zM96.19-35.99l-11.52 18.51 12.5 17.48h-6.79l-9.62-14.16v-7.13l8.74-14.7zM127-35.99h5.86v35.99h-5.86v-16.21h-13.57v-4h13.57zM105.47 0v-35.99h5.96v35.99zM141.21-18.16v0c0-2.9 0.35-5.463 1.05-7.69 0.7-2.233 1.677-4.123 2.93-5.67 1.253-1.547 2.733-2.733 4.44-3.56 1.713-0.833 3.577-1.313 5.59-1.44v0 4.88c-1.107 0.127-2.147 0.467-3.12 1.02-0.98 0.553-1.827 1.37-2.54 2.45-0.713 1.073-1.283 2.44-1.71 4.1-0.42 1.66-0.647 3.63-0.68 5.91v0c0.033 2.307 0.26 4.283 0.68 5.93 0.427 1.64 1.003 3.013 1.73 4.12 0.733 1.107 1.59 1.947 2.57 2.52 0.973 0.567 1.997 0.9 3.07 1v0 4.83c-1.98-0.127-3.833-0.607-5.56-1.44-1.727-0.827-3.217-2.013-4.47-3.56-1.253-1.547-2.23-3.443-2.93-5.69-0.7-2.247-1.05-4.817-1.05-7.71zM157.18-31.69v-4.83c1.987 0.093 3.833 0.563 5.54 1.41 1.707 0.847 3.187 2.043 4.44 3.59 1.253 1.547 2.24 3.437 2.96 5.67 0.713 2.227 1.07 4.79 1.07 7.69v0c0 2.893-0.357 5.463-1.07 7.71-0.72 2.247-1.707 4.143-2.96 5.69-1.253 1.547-2.727 2.733-4.42 3.56-1.687 0.833-3.54 1.313-5.56 1.44v0-4.83c1.107-0.133 2.147-0.483 3.12-1.05 0.98-0.567 1.827-1.397 2.54-2.49 0.72-1.093 1.29-2.46 1.71-4.1 0.427-1.647 0.653-3.623 0.68-5.93v0c-0.027-2.313-0.253-4.293-0.68-5.94-0.42-1.64-0.997-3.007-1.73-4.1-0.733-1.087-1.59-1.917-2.57-2.49-0.973-0.567-1.997-0.9-3.07-1z" fill="#1d597d" fill-rule="nonzero" stroke="none" stroke-width="1" stroke-linecap="butt" stroke-linejoin="miter" stroke-miterlimit="10" stroke-dasharray="" stroke-dashoffset="0" font-family="none" font-weight="none" font-size="none" text-anchor="none" style="mix-blend-mode: normal" data-fill-palette-color="primary" opacity="1"/></g></svg></g></svg></g><g transform="matrix(1,0,0,1,0,210.58708847408798)"><svg viewBox="0 0 187.87199999999999 25.281028318939544" height="25.281028318939544" width="187.87199999999999"><g transform="matrix(1,0,0,1,0,0)"><svg width="187.87199999999999" viewBox="2.35 -33.2 248.93 33.5" height="25.281028318939544" data-palette-color="#1d597d"><path d="M26.1-3.6L26.1-8.55Q26.1-8.7 26.1-8.85 26.1-9 26.1-9.15L26.1-9.15Q26.1-10.1 26.08-10.88 26.05-11.65 25.9-12.15L25.9-12.15Q25.85-12.45 25.13-12.63 24.4-12.8 23.63-12.88 22.85-12.95 22.55-12.95L22.55-12.95Q22.4-13.15 22.38-13.65 22.35-14.15 22.55-14.35L22.55-14.35Q24.05-14.3 25.45-14.2 26.85-14.1 28.25-14.1L28.25-14.1Q29.7-14.1 30.98-14.2 32.25-14.3 33.75-14.35L33.75-14.35Q33.95-14.15 33.93-13.65 33.9-13.15 33.75-12.95L33.75-12.95Q33.45-12.95 32.7-12.88 31.95-12.8 31.3-12.63 30.65-12.45 30.55-12.15L30.55-12.15Q30.35-11.55 30.33-10.6 30.3-9.65 30.3-8.55L30.3-8.55 30.3-5.1Q30.3-4.3 30.55-3.9 30.8-3.5 30.8-3.1L30.8-3.1Q30.8-2.9 30.65-2.75 30.5-2.6 29.85-2.25L29.85-2.25Q28.8-1.7 27.43-1.1 26.05-0.5 23.98-0.1 21.9 0.3 18.65 0.3L18.65 0.3Q15.05 0.3 12.05-0.98 9.05-2.25 6.88-4.48 4.7-6.7 3.53-9.58 2.35-12.45 2.35-15.7L2.35-15.7Q2.35-19.15 3.58-22.18 4.8-25.2 7-27.55 9.2-29.9 12.23-31.23 15.25-32.55 18.85-32.55L18.85-32.55Q21.25-32.55 23.88-32.35 26.5-32.15 29.2-31.55L29.2-31.55Q29.2-31.55 29.38-30.53 29.55-29.5 29.75-28.13 29.95-26.75 30.13-25.63 30.3-24.5 30.3-24.3L30.3-24.3Q30.35-24.1 30-23.9 29.65-23.7 29.25-23.7L29.25-23.7Q28.9-23.7 28.65-23.85L28.65-23.85Q28.55-24.4 28.18-25.55 27.8-26.7 26.83-27.95 25.85-29.2 24-30.08 22.15-30.95 19.1-30.95L19.1-30.95Q16.4-30.95 14.2-29.73 12-28.5 10.43-26.43 8.85-24.35 8.03-21.83 7.2-19.3 7.2-16.75L7.2-16.75Q7.2-13.9 7.98-11.15 8.75-8.4 10.33-6.18 11.9-3.95 14.28-2.63 16.65-1.3 19.85-1.3L19.85-1.3Q21.75-1.3 23.23-1.83 24.7-2.35 25.8-2.9L25.8-2.9Q26.05-3 26.08-3.18 26.1-3.35 26.1-3.6L26.1-3.6ZM43.15-32.1L43.15-32.1Q46.6-32.1 50.75-32.25 54.9-32.4 58.85-32.4L58.85-32.4Q59.1-30.55 59.5-29 59.9-27.45 60.25-25.8L60.25-25.8Q60-25.55 59.4-25.55L59.4-25.55Q58.75-25.55 58.7-25.9L58.7-25.9Q57.9-28.85 56.45-29.65 55-30.45 53.05-30.45L53.05-30.45 48.85-30.45Q48.55-30.45 47.75-30.43 46.95-30.4 46.25-30.3 45.55-30.2 45.45-29.95L45.45-29.95Q45.3-29.45 45.27-28.65 45.25-27.85 45.25-27L45.25-27Q45.25-26.65 45.25-26.45L45.25-26.45 45.25-17.35Q45.25-17.15 45.9-17.1 46.55-17.05 47.35-17.05L47.35-17.05 49.9-17.05Q51.65-17.05 52.62-17.15 53.6-17.25 54.05-17.6 54.5-17.95 54.75-18.65 55-19.35 55.3-20.55L55.3-20.55Q55.35-20.9 56-20.9L56-20.9Q56.6-20.9 56.85-20.65L56.85-20.65 56.85-11.45Q56.65-11.25 56.05-11.25L56.05-11.25Q55.45-11.25 55.3-11.6L55.3-11.6Q54.95-13 54.72-13.63 54.5-14.25 54.32-14.48 54.15-14.7 53.9-14.85L53.9-14.85Q53.65-15.05 52.75-15.13 51.85-15.2 50.77-15.23 49.7-15.25 48.75-15.25L48.75-15.25Q48.1-15.25 47.27-15.23 46.45-15.2 45.85-15.13 45.25-15.05 45.25-14.8L45.25-14.8 45.25-5.5Q45.25-5.4 45.25-5.2L45.25-5.2Q45.25-4.5 45.27-3.4 45.3-2.3 45.5-2.15L45.5-2.15Q46-1.8 46.72-1.73 47.45-1.65 49-1.65L49-1.65 51.35-1.65Q53.1-1.65 54.8-2 56.5-2.35 57.5-3L57.5-3Q58.65-3.7 59.3-5.03 59.95-6.35 60.55-7.9L60.55-7.9Q60.65-8.2 61.25-8.2L61.25-8.2Q62.15-8.2 62.45-7.9L62.45-7.9Q61.75-5.9 60.92-3.65 60.1-1.4 59.85 0.2L59.85 0.2Q55.9 0.2 52 0.1 48.1 0 43.2 0L43.2 0Q41.5 0 40.15 0.08 38.8 0.15 37.35 0.15L37.35 0.15Q37.15-0.05 37.17-0.55 37.2-1.05 37.35-1.25L37.35-1.25Q37.65-1.25 38.45-1.33 39.25-1.4 39.97-1.6 40.7-1.8 40.75-2.05L40.75-2.05Q40.95-2.65 40.97-3.6 41-4.55 41-5.65L41-5.65 41-26.5Q41-27.6 40.97-28.58 40.95-29.55 40.75-30.15L40.75-30.15Q40.7-30.45 39.97-30.6 39.25-30.75 38.45-30.83 37.65-30.9 37.35-30.9L37.35-30.9Q37.2-31.1 37.17-31.6 37.15-32.1 37.35-32.3L37.35-32.3Q38.85-32.25 40.3-32.18 41.75-32.1 43.15-32.1ZM69.5-32.3L88.59-32.3Q89.2-32.3 90.15-32.55 91.09-32.8 91.55-33L91.55-33Q91.95-33.2 92.09-33.2 92.25-33.2 92.45-33.1L92.45-33.1Q92.7-30.85 93.02-28.75 93.34-26.65 93.75-24.7L93.75-24.7Q93.65-24.6 93.4-24.45 93.15-24.3 92.8-24.35L92.8-24.35Q92.25-24.35 92.09-24.6L92.09-24.6Q91.59-27.15 90.45-28.85 89.3-30.55 87.45-30.55L87.45-30.55 81.25-30.55 81.25-5.65Q81.25-4.55 81.27-3.6 81.3-2.65 81.5-2.05L81.5-2.05Q81.59-1.8 82.3-1.6 83-1.4 83.77-1.33 84.55-1.25 84.84-1.25L84.84-1.25Q85-1.05 85.02-0.55 85.05-0.05 84.84 0.15L84.84 0.15Q83.34 0.05 81.97-0.03 80.59-0.1 79.15-0.1L79.15-0.1Q77.75-0.1 76.3-0.03 74.84 0.05 73.34 0.15L73.34 0.15Q73.14-0.05 73.17-0.55 73.2-1.05 73.34-1.25L73.34-1.25Q73.65-1.25 74.45-1.33 75.25-1.4 75.97-1.6 76.7-1.8 76.75-2.05L76.75-2.05Q76.95-2.65 76.97-3.6 77-4.55 77-5.65L77-5.65 77-30.55 70.7-30.55Q68.84-30.55 67.7-28.85 66.55-27.15 66-24.6L66-24.6Q65.84-24.35 65.3-24.35L65.3-24.35Q64.95-24.3 64.72-24.45 64.5-24.6 64.39-24.7L64.39-24.7Q64.8-26.65 65.09-28.75 65.39-30.85 65.64-33.1L65.64-33.1Q65.89-33.2 66.25-33.13 66.59-33.05 66.8-32.95L66.8-32.95Q67.25-32.75 68.07-32.52 68.89-32.3 69.5-32.3L69.5-32.3ZM116.94-32.1L116.94-32.1Q118.39-32.1 119.77-32.18 121.14-32.25 122.64-32.3L122.64-32.3Q122.84-32.1 122.81-31.53 122.79-30.95 122.64-30.75L122.64-30.75Q122.34-30.75 121.54-30.68 120.74-30.6 120.04-30.45 119.34-30.3 119.24-30L119.24-30Q119.09-29.5 119.06-28.7 119.04-27.9 119.04-26.95L119.04-26.95Q119.04-26.8 119.04-26.65 119.04-26.5 119.04-26.35L119.04-26.35 119.04-17.8Q119.04-17.75 119.09-17.73 119.14-17.7 119.14-17.7L119.14-17.7Q120.94-17.65 122.84-17.6 124.74-17.55 126.79-17.55L126.79-17.55Q128.54-17.55 130.56-17.6 132.59-17.65 134.24-17.7L134.24-17.7Q134.24-17.7 134.29-17.75 134.34-17.8 134.34-17.85L134.34-17.85 134.34-26.35Q134.34-27.45 134.31-28.43 134.29-29.4 134.09-30L134.09-30Q134.04-30.3 133.31-30.45 132.59-30.6 131.81-30.68 131.04-30.75 130.74-30.75L130.74-30.75Q130.59-30.95 130.56-31.53 130.54-32.1 130.74-32.3L130.74-32.3Q132.24-32.25 133.66-32.18 135.09-32.1 136.49-32.1L136.49-32.1Q137.94-32.1 139.31-32.18 140.69-32.25 142.19-32.3L142.19-32.3Q142.39-32.1 142.37-31.53 142.34-30.95 142.19-30.75L142.19-30.75Q141.89-30.75 141.12-30.68 140.34-30.6 139.64-30.45 138.94-30.3 138.84-30L138.84-30Q138.64-29.4 138.62-28.43 138.59-27.45 138.59-26.35L138.59-26.35 138.59-5.8Q138.59-4.7 138.62-3.75 138.64-2.8 138.84-2.2L138.84-2.2Q138.94-1.95 139.64-1.75 140.34-1.55 141.12-1.48 141.89-1.4 142.19-1.4L142.19-1.4Q142.34-1.2 142.37-0.63 142.39-0.05 142.19 0.15L142.19 0.15Q140.69 0.05 139.31-0.03 137.94-0.1 136.49-0.1L136.49-0.1Q135.09-0.1 133.66-0.03 132.24 0.05 130.74 0.15L130.74 0.15Q130.54-0.05 130.56-0.63 130.59-1.2 130.74-1.4L130.74-1.4Q131.04-1.4 131.81-1.48 132.59-1.55 133.31-1.75 134.04-1.95 134.09-2.2L134.09-2.2Q134.29-2.8 134.31-3.75 134.34-4.7 134.34-5.8L134.34-5.8 134.34-15.5Q134.34-15.6 134.29-15.63 134.24-15.65 134.24-15.65L134.24-15.65Q132.54-15.7 130.62-15.78 128.69-15.85 126.79-15.85L126.79-15.85Q123.39-15.85 121.79-15.8 120.19-15.75 119.69-15.7 119.19-15.65 119.09-15.6L119.09-15.6Q119.04-15.55 119.04-15.53 119.04-15.5 119.04-15.5L119.04-15.5 119.04-5.8Q119.04-5.65 119.04-5.5 119.04-5.35 119.04-5.2L119.04-5.2Q119.04-4.25 119.06-3.48 119.09-2.7 119.24-2.2L119.24-2.2Q119.34-1.95 120.04-1.75 120.74-1.55 121.54-1.48 122.34-1.4 122.64-1.4L122.64-1.4Q122.79-1.2 122.81-0.63 122.84-0.05 122.64 0.15L122.64 0.15Q121.14 0.05 119.77-0.03 118.39-0.1 116.94-0.1L116.94-0.1Q115.54-0.1 114.09-0.03 112.64 0.05 111.14 0.15L111.14 0.15Q110.94-0.05 110.97-0.63 110.99-1.2 111.14-1.4L111.14-1.4Q111.44-1.4 112.24-1.48 113.04-1.55 113.77-1.75 114.49-1.95 114.54-2.2L114.54-2.2Q114.74-2.8 114.77-3.75 114.79-4.7 114.79-5.8L114.79-5.8 114.79-26.35Q114.79-27.45 114.77-28.43 114.74-29.4 114.54-30L114.54-30Q114.49-30.3 113.77-30.45 113.04-30.6 112.24-30.68 111.44-30.75 111.14-30.75L111.14-30.75Q110.99-30.95 110.97-31.53 110.94-32.1 111.14-32.3L111.14-32.3Q112.64-32.25 114.09-32.18 115.54-32.1 116.94-32.1ZM152.34-32.1L152.34-32.1Q153.79-32.1 155.16-32.18 156.54-32.25 158.04-32.3L158.04-32.3Q158.24-32.1 158.21-31.6 158.19-31.1 158.04-30.9L158.04-30.9Q157.74-30.9 156.94-30.83 156.14-30.75 155.44-30.6 154.74-30.45 154.64-30.15L154.64-30.15Q154.49-29.65 154.46-28.85 154.44-28.05 154.44-27.1L154.44-27.1Q154.44-26.95 154.44-26.8 154.44-26.65 154.44-26.5L154.44-26.5 154.44-5.65Q154.44-5.5 154.44-5.35 154.44-5.2 154.44-5.05L154.44-5.05Q154.44-4.1 154.46-3.33 154.49-2.55 154.64-2.05L154.64-2.05Q154.74-1.8 155.44-1.6 156.14-1.4 156.94-1.33 157.74-1.25 158.04-1.25L158.04-1.25Q158.19-1.05 158.21-0.55 158.24-0.05 158.04 0.15L158.04 0.15Q156.54 0.05 155.16-0.03 153.79-0.1 152.34-0.1L152.34-0.1Q150.94-0.1 149.49-0.03 148.04 0.05 146.54 0.15L146.54 0.15Q146.34-0.05 146.36-0.55 146.39-1.05 146.54-1.25L146.54-1.25Q146.84-1.25 147.64-1.33 148.44-1.4 149.16-1.6 149.89-1.8 149.94-2.05L149.94-2.05Q150.14-2.65 150.16-3.6 150.19-4.55 150.19-5.65L150.19-5.65 150.19-26.5Q150.19-27.6 150.16-28.58 150.14-29.55 149.94-30.15L149.94-30.15Q149.89-30.45 149.16-30.6 148.44-30.75 147.64-30.83 146.84-30.9 146.54-30.9L146.54-30.9Q146.39-31.1 146.36-31.6 146.34-32.1 146.54-32.3L146.54-32.3Q148.04-32.25 149.49-32.18 150.94-32.1 152.34-32.1ZM175.04-32.2L175.04-32.2Q176.69-32.2 178.44-31.65 180.19-31.1 181.66-30.05 183.14-29 184.04-27.43 184.94-25.85 184.94-23.75L184.94-23.75Q184.94-22 183.96-20.35 182.99-18.7 181.46-17.45 179.94-16.2 178.29-15.65L178.29-15.65Q179.59-13.5 180.79-11.7 181.99-9.9 183.29-8.13 184.59-6.35 186.19-4.2L186.19-4.2Q187.24-2.8 188.46-2.1 189.69-1.4 191.69-1.25L191.69-1.25Q191.89-1.05 191.79-0.5 191.69 0.05 191.64 0.15L191.64 0.15Q189.19 0.15 187.56-0.03 185.94-0.2 185.19-0.45L185.19-0.45Q184.69-0.65 183.79-1.07 182.89-1.5 182.04-2.6L182.04-2.6Q181.74-3 180.94-4.15 180.14-5.3 179.04-6.95 177.94-8.6 176.69-10.48 175.44-12.35 174.29-14.15L174.29-14.15Q173.89-14.75 172.79-14.75L172.79-14.75 170.24-14.75 170.24-5.65Q170.24-5.5 170.24-5.35 170.24-5.2 170.24-5.05L170.24-5.05Q170.24-4.1 170.26-3.33 170.29-2.55 170.44-2.05L170.44-2.05Q170.54-1.8 171.24-1.6 171.94-1.4 172.74-1.33 173.54-1.25 173.84-1.25L173.84-1.25Q173.99-1.05 174.01-0.55 174.04-0.05 173.84 0.15L173.84 0.15Q172.34 0.05 170.96-0.03 169.59-0.1 168.14-0.1L168.14-0.1Q166.74-0.1 165.29-0.03 163.84 0.05 162.34 0.15L162.34 0.15Q162.14-0.05 162.16-0.55 162.19-1.05 162.34-1.25L162.34-1.25Q162.64-1.25 163.44-1.33 164.24-1.4 164.96-1.6 165.69-1.8 165.74-2.05L165.74-2.05Q165.94-2.65 165.96-3.6 165.99-4.55 165.99-5.65L165.99-5.65 165.94-26.5Q165.94-27.6 165.91-28.58 165.89-29.55 165.69-30.15L165.69-30.15Q165.64-30.45 164.91-30.6 164.19-30.75 163.41-30.83 162.64-30.9 162.34-30.9L162.34-30.9Q162.19-31.1 162.16-31.6 162.14-32.1 162.34-32.3L162.34-32.3Q163.84-32.25 165.26-32.18 166.69-32.1 168.09-32.1L168.09-32.1Q169.54-32.1 171.21-32.15 172.89-32.2 175.04-32.2ZM180.39-23.3L180.39-23.3Q180.39-26.5 178.66-28.55 176.94-30.6 172.89-30.6L172.89-30.6Q172.44-30.6 171.51-30.55 170.59-30.5 170.44-30.15L170.44-30.15Q170.24-29.7 170.21-28.63 170.19-27.55 170.19-26.45L170.19-26.45 170.24-16.25 172.84-16.25Q174.74-16.25 176.46-17.13 178.19-18 179.29-19.58 180.39-21.15 180.39-23.3ZM198.43-32.1L198.43-32.1Q201.88-32.1 206.03-32.25 210.18-32.4 214.13-32.4L214.13-32.4Q214.38-30.55 214.78-29 215.18-27.45 215.53-25.8L215.53-25.8Q215.28-25.55 214.68-25.55L214.68-25.55Q214.03-25.55 213.98-25.9L213.98-25.9Q213.18-28.85 211.73-29.65 210.28-30.45 208.33-30.45L208.33-30.45 204.13-30.45Q203.83-30.45 203.03-30.43 202.23-30.4 201.53-30.3 200.83-30.2 200.73-29.95L200.73-29.95Q200.58-29.45 200.56-28.65 200.53-27.85 200.53-27L200.53-27Q200.53-26.65 200.53-26.45L200.53-26.45 200.53-17.35Q200.53-17.15 201.18-17.1 201.83-17.05 202.63-17.05L202.63-17.05 205.18-17.05Q206.93-17.05 207.91-17.15 208.88-17.25 209.33-17.6 209.78-17.95 210.03-18.65 210.28-19.35 210.58-20.55L210.58-20.55Q210.63-20.9 211.28-20.9L211.28-20.9Q211.88-20.9 212.13-20.65L212.13-20.65 212.13-11.45Q211.93-11.25 211.33-11.25L211.33-11.25Q210.73-11.25 210.58-11.6L210.58-11.6Q210.23-13 210.01-13.63 209.78-14.25 209.61-14.48 209.43-14.7 209.18-14.85L209.18-14.85Q208.93-15.05 208.03-15.13 207.13-15.2 206.06-15.23 204.98-15.25 204.03-15.25L204.03-15.25Q203.38-15.25 202.56-15.23 201.73-15.2 201.13-15.13 200.53-15.05 200.53-14.8L200.53-14.8 200.53-5.5Q200.53-5.4 200.53-5.2L200.53-5.2Q200.53-4.5 200.56-3.4 200.58-2.3 200.78-2.15L200.78-2.15Q201.28-1.8 202.01-1.73 202.73-1.65 204.28-1.65L204.28-1.65 206.63-1.65Q208.38-1.65 210.08-2 211.78-2.35 212.78-3L212.78-3Q213.93-3.7 214.58-5.03 215.23-6.35 215.83-7.9L215.83-7.9Q215.93-8.2 216.53-8.2L216.53-8.2Q217.43-8.2 217.73-7.9L217.73-7.9Q217.03-5.9 216.21-3.65 215.38-1.4 215.13 0.2L215.13 0.2Q211.18 0.2 207.28 0.1 203.38 0 198.48 0L198.48 0Q196.78 0 195.43 0.08 194.08 0.15 192.63 0.15L192.63 0.15Q192.43-0.05 192.46-0.55 192.48-1.05 192.63-1.25L192.63-1.25Q192.93-1.25 193.73-1.33 194.53-1.4 195.26-1.6 195.98-1.8 196.03-2.05L196.03-2.05Q196.23-2.65 196.26-3.6 196.28-4.55 196.28-5.65L196.28-5.65 196.28-26.5Q196.28-27.6 196.26-28.58 196.23-29.55 196.03-30.15L196.03-30.15Q195.98-30.45 195.26-30.6 194.53-30.75 193.73-30.83 192.93-30.9 192.63-30.9L192.63-30.9Q192.48-31.1 192.46-31.6 192.43-32.1 192.63-32.3L192.63-32.3Q194.13-32.25 195.58-32.18 197.03-32.1 198.43-32.1ZM234.13-32.15L234.13-32.15Q239.48-32.15 243.33-30.08 247.18-28 249.23-24.43 251.28-20.85 251.28-16.3L251.28-16.3Q251.28-13.2 250.43-10.25 249.58-7.3 247.56-4.95 245.53-2.6 242.08-1.23 238.63 0.15 233.48 0.15L233.48 0.15 221.28 0.15Q221.08-0.05 221.11-0.55 221.13-1.05 221.28-1.25L221.28-1.25Q221.58-1.25 222.38-1.33 223.18-1.4 223.91-1.6 224.63-1.8 224.68-2.05L224.68-2.05Q224.88-2.65 224.91-3.6 224.93-4.55 224.93-5.65L224.93-5.65 224.93-26.5Q224.93-27.6 224.91-28.58 224.88-29.55 224.68-30.15L224.68-30.15Q224.63-30.45 223.91-30.6 223.18-30.75 222.38-30.83 221.58-30.9 221.28-30.9L221.28-30.9Q221.13-31.1 221.11-31.6 221.08-32.1 221.28-32.3L221.28-32.3Q222.78-32.25 224.23-32.18 225.68-32.1 227.08-32.1L227.08-32.1Q228.53-32.1 230.53-32.13 232.53-32.15 234.13-32.15ZM229.23-26.4L229.23-26.4 229.23-5.6Q229.23-5.25 229.23-4.48 229.23-3.7 229.31-2.98 229.38-2.25 229.48-2.1L229.48-2.1Q229.78-1.7 230.96-1.55 232.13-1.4 233.48-1.4L233.48-1.4Q236.98-1.4 239.91-2.9 242.83-4.4 244.63-7.48 246.43-10.55 246.43-15.3L246.43-15.3Q246.43-19.45 245.31-22.35 244.18-25.25 242.26-27.08 240.33-28.9 237.91-29.73 235.48-30.55 232.83-30.55L232.83-30.55Q232.53-30.55 231.73-30.53 230.93-30.5 230.23-30.4 229.53-30.3 229.43-30.05L229.43-30.05Q229.28-29.55 229.26-28.73 229.23-27.9 229.23-27L229.23-27Q229.23-26.85 229.23-26.7 229.23-26.55 229.23-26.4Z" opacity="1" transform="matrix(1,0,0,1,0,0)" fill="#1d597d" class="slogan-text-1" data-fill-palette-color="secondary" id="text-1"/></svg></g></svg></g></svg></g></svg></g><g transform="matrix(1,0,0,1,0,0.5896702919825572)"><svg viewBox="0 0 124.68250729364762 235.86811679302753" height="235.86811679302753" width="124.68250729364762"><g><svg xmlns="http://www.w3.org/2000/svg" data-name="Layer 1" viewBox="14.47 6 19.03 36" x="0" y="0" height="235.86811679302753" width="124.68250729364762" class="icon-icon-0" data-fill-palette-color="accent" id="icon-0"><path d="M27.05 12.48A2.6 2.6 0 0 0 25.85 12.17H22.15A2.6 2.6 0 0 0 20.95 12.48L14.47 6V12.53A3 3 0 0 0 17.47 15.53H19.62V17A2.52 2.52 0 0 0 21.62 19.48L20.34 36.88 23.93 42 27.66 36.88 26.35 19.43A2.52 2.52 0 0 0 28.35 16.95V15.53H30.5A3 3 0 0 0 33.5 12.53V6Z" fill="#1d597d" data-fill-palette-color="accent"/></svg></g></svg></g></svg></g><defs/></svg><rect width="395.52" height="164.60811011139356" fill="none" stroke="none" visibility="hidden"/></g></svg>